<?xml version="1.0" encoding="UTF-8"?>
<svg version="1.1" xmlns="http://www.w3.org/2000/svg" width="1000" height="1000">
<path d="M0 0 C1.5725132 -0.00307895 1.5725132 -0.00307895 3.17679435 -0.0062201 C6.69501427 -0.01188139 10.21319494 -0.01043391 13.73141861 -0.00901413 C16.27732108 -0.01159827 18.82322315 -0.01461157 21.36912465 -0.01801753 C27.6358907 -0.0252392 33.90264449 -0.02778989 40.16941421 -0.02834659 C47.67738991 -0.02926161 55.18535777 -0.03593335 62.69333008 -0.04269341 C80.84021125 -0.05874278 98.98709157 -0.06465581 117.13397857 -0.06944216 C125.72308586 -0.07177951 134.31219248 -0.07538235 142.90129925 -0.07913754 C172.31682302 -0.09197307 201.73234642 -0.10269149 231.14787292 -0.10614014 C232.99397308 -0.10636177 234.84007324 -0.10658355 236.68617339 -0.10680549 C238.53667725 -0.10702613 240.38718111 -0.10724661 242.23768497 -0.10746694 C245.94997199 -0.10790948 249.66225902 -0.1083566 253.37454605 -0.10880661 C254.29497541 -0.108916 255.21540476 -0.10902539 256.16372592 -0.1091381 C285.99309718 -0.11276685 315.82244412 -0.12868003 345.65180607 -0.15199697 C377.20671363 -0.17661752 408.7616073 -0.19031404 440.31652474 -0.19150805 C443.7835606 -0.1916795 447.25059645 -0.19189493 450.71763229 -0.19214249 C451.99810682 -0.19222614 451.99810682 -0.19222614 453.30444952 -0.19231148 C467.01696948 -0.19346009 480.7294644 -0.20446606 494.44197592 -0.21902954 C508.23782945 -0.23342761 522.03365102 -0.23661292 535.82951 -0.22858956 C544.01488402 -0.22414863 552.20015455 -0.22793203 560.38551488 -0.24382807 C566.51394013 -0.25479217 572.64225998 -0.24988881 578.77068332 -0.2390562 C581.23781068 -0.23710527 583.70494856 -0.24014944 586.17206118 -0.24890056 C620.49367362 -0.36286384 652.07993118 6.82498599 682.40433121 23.13142776 C682.99520523 23.44160843 683.58607925 23.75178909 684.19485855 24.07136917 C697.40926958 31.03387997 709.32519177 39.95200822 720.24417496 50.12361526 C722.2697176 52.0063077 724.35137512 53.78879838 726.46683121 55.56892776 C760.45029158 85.41468138 781.47385003 134.8388131 784.63084567 179.32318151 C784.97702917 187.0367639 784.94314994 194.74966364 784.91226578 202.46919632 C784.91688723 205.0262104 784.92324842 207.58322182 784.93117476 210.14022779 C784.94546857 215.65036485 784.94527916 221.16034452 784.93498611 226.67048836 C784.91972121 234.86487277 784.92766029 243.05912685 784.93981934 251.25351067 C784.96078244 265.89708664 784.95909683 280.54059241 784.94750369 295.18417491 C784.93740868 307.99964343 784.93482987 320.81508633 784.93959427 333.63055801 C784.94005258 334.90976109 784.94005258 334.90976109 784.94052015 336.21480664 C784.94176567 339.67732316 784.94303929 343.13983966 784.9443592 346.60235615 C784.95657262 379.02894817 784.94553729 411.4554957 784.92397162 443.88208085 C784.90499171 472.6392112 784.90669032 501.39627068 784.92581558 530.15340042 C784.94727236 562.52380283 784.95570616 594.89416599 784.94336653 627.26457453 C784.94208382 630.72048218 784.94083245 634.17638985 784.93959427 637.63229752 C784.93927796 638.48311958 784.93896165 639.33394164 784.93863576 640.21054619 C784.93410163 653.01238551 784.93937743 665.81419629 784.94951248 678.61603165 C784.96098909 693.18432598 784.95800633 707.75253965 784.93638951 722.32082403 C784.92471326 730.45637537 784.92377686 738.59175171 784.9389742 746.72729822 C784.94910369 752.82683093 784.93798348 758.92616122 784.91907591 765.02566916 C784.91465051 767.47420375 784.91678307 769.9227621 784.92657906 772.37128109 C785.00296223 793.07006631 783.22256088 813.67085787 776.71683121 833.44392776 C776.37506851 834.51312454 776.03330582 835.58232132 775.68118668 836.683918 C767.04462333 862.93601822 753.26737741 886.73061741 734.41214371 906.97127151 C732.52945127 908.99681416 730.74696059 911.07847168 728.96683121 913.19392776 C699.12107759 947.17738814 649.69694587 968.20094659 605.21257746 971.35794222 C597.49899507 971.70412573 589.78609534 971.67024649 582.06656265 971.63936234 C579.50954857 971.64398379 576.95253715 971.65034497 574.39553118 971.65827131 C568.88539412 971.67256513 563.37541445 971.67237572 557.86527061 971.66208267 C549.6708862 971.64681776 541.47663212 971.65475684 533.2822483 971.6669159 C518.63867233 971.687879 503.99516656 971.68619339 489.35158406 971.67460025 C476.53611554 971.66450524 463.72067264 971.66192643 450.90520096 971.66669083 C450.05239891 971.66699637 449.19959686 971.66730191 448.32095233 971.66761671 C444.85843581 971.66886223 441.39591931 971.67013585 437.93340282 971.67145576 C405.5068108 971.68366918 373.08026327 971.67263385 340.65367813 971.65106817 C311.89654777 971.63208826 283.13948829 971.63378688 254.38235855 971.65291214 C222.01195614 971.67436892 189.64159298 971.68280272 157.27118444 971.67046309 C153.81527679 971.66918037 150.35936913 971.667929 146.90346146 971.66669083 C146.05263939 971.66637452 145.20181733 971.66605821 144.32521278 971.66573231 C131.52337346 971.66119818 118.72156268 971.66647399 105.91972733 971.67660904 C91.351433 971.68808565 76.78321932 971.68510289 62.21493495 971.66348606 C54.0793836 971.65180981 45.94400726 971.65087342 37.80846075 971.66607076 C31.70892805 971.67620025 25.60959776 971.66508003 19.51008981 971.64617246 C17.06155523 971.64174707 14.61299688 971.64387963 12.16447788 971.65367562 C-8.53430734 971.73005878 -29.1350989 969.94965743 -48.90816879 963.44392776 C-49.97736557 963.10216507 -51.04656235 962.76040237 -52.14815903 962.40828323 C-78.40025925 953.77171989 -102.19485844 939.99447397 -122.43551254 921.13924026 C-124.46105519 919.25654783 -126.54271271 917.47405715 -128.65816879 915.69392776 C-162.63769318 885.8516309 -183.67450731 836.41934417 -186.8216701 791.93710826 C-187.16632006 784.21310495 -187.13002045 776.48987358 -187.09687424 768.76001358 C-187.10077757 766.1994365 -187.10642622 763.6388616 -187.11364514 761.07829171 C-187.12641588 755.56049927 -187.12469421 750.04286831 -187.11286545 744.52507591 C-187.09532395 736.31958538 -187.10104033 728.1142194 -187.11103236 719.90872201 C-187.12814125 705.24673907 -187.122737 690.58483138 -187.10767517 675.92285008 C-187.09458296 663.09442852 -187.08943521 650.26603296 -187.09199333 637.4376049 C-187.09215375 636.58407723 -187.09231416 635.73054956 -187.09247944 634.85115742 C-187.09314311 631.38578471 -187.09384553 627.92041202 -187.09460478 624.45503934 C-187.10161538 592.00471885 -187.08618157 559.55444412 -187.05998132 527.10413528 C-187.03685901 498.31349512 -187.03148338 469.5229052 -187.04171371 440.73225784 C-187.04431602 433.35533367 -187.04690112 425.97840949 -187.04931164 418.60148525 C-187.04960909 417.69311708 -187.04990653 416.78474891 -187.05021299 415.84885444 C-187.05783692 391.74184717 -187.05140784 367.63484397 -187.04061562 343.52783853 C-187.03946789 340.93237967 -187.03832471 338.3369208 -187.03718879 335.74146194 C-187.03643355 334.01994181 -187.03566791 332.29842168 -187.03489179 330.57690156 C-187.02924752 317.75732124 -187.03055379 304.93775395 -187.03512001 292.1181736 C-187.04024012 277.53693706 -187.03432008 262.95574908 -187.01422571 248.37452462 C-187.00328447 240.22684203 -187.00040411 232.07925499 -187.00951425 223.93156959 C-187.01538863 217.83189581 -187.00542296 211.73235209 -186.9895146 205.6326919 C-186.98549363 203.17751712 -186.98643004 200.72232772 -186.99303346 198.26715853 C-187.07729412 163.98544158 -179.88294902 132.42019388 -163.59566879 102.13142776 C-163.28548813 101.54055374 -162.97530746 100.94967972 -162.65572739 100.34090042 C-155.69321659 87.12648939 -146.77508833 75.2105672 -136.60348129 64.29158401 C-134.72078885 62.26604137 -132.93829818 60.18438385 -131.15816879 58.06892776 C-100.11559364 22.72272288 -46.63364489 -0.08538967 0 0 Z " fill="#0084FF" transform="translate(201.5956687927246,14.868572235107422)"/>
<path d="M0 0 C2.95555804 7.66700112 5.57200914 14.72550999 6 23 C6.66 23 7.32 23 8 23 C8.26554688 24.21816406 8.53109375 25.43632812 8.8046875 26.69140625 C9.16134345 28.3151294 9.51812074 29.93882591 9.875 31.5625 C10.04902344 32.36236328 10.22304688 33.16222656 10.40234375 33.98632812 C11.19147337 37.56663842 12.02201804 41.07384882 13.0703125 44.58984375 C14 48 14 48 15 56 C31.5 56 48 56 65 56 C65 91.64 65 127.28 65 164 C51.14 164 37.28 164 23 164 C23 169.94 23 175.88 23 182 C22.74868988 186.10879852 22.46684478 190.16066912 22.0625 194.25 C21.97548828 195.21550781 21.88847656 196.18101562 21.79882812 197.17578125 C21.36747804 201.82158147 20.85503453 206.40900377 20 211 C19.34 211 18.68 211 18 211 C18.05671875 212.05703125 18.1134375 213.1140625 18.171875 214.203125 C18.16657537 220.228803 16.6470536 225.91998786 15.25 231.75 C14.99734375 232.8534375 14.7446875 233.956875 14.484375 235.09375 C11.34178905 248.48116616 6.64228079 261.19993728 1.3203125 273.8515625 C0.45063919 275.92539886 -0.40901004 278.00347183 -1.2578125 280.0859375 C-3.89823939 286.54584984 -6.78063508 292.80785982 -10 299 C-10.66 299 -11.32 299 -12 299 C-12.114646 299.7326709 -12.22929199 300.4653418 -12.34741211 301.22021484 C-13.01570003 304.06687637 -13.93962935 305.98236115 -15.44140625 308.4765625 C-15.93866211 309.30687988 -16.43591797 310.13719727 -16.94824219 310.99267578 C-17.48094727 311.86134277 -18.01365234 312.73000977 -18.5625 313.625 C-19.37895996 314.96860596 -19.37895996 314.96860596 -20.21191406 316.33935547 C-24.18102823 322.80941058 -28.31697501 329.019985 -33 335 C-33.62003906 335.79921875 -34.24007812 336.5984375 -34.87890625 337.421875 C-36.88991981 339.9732215 -38.93782011 342.48984208 -41 345 C-41.81082031 345.99773437 -42.62164063 346.99546875 -43.45703125 348.0234375 C-53.49112799 360.23024965 -64.48667662 371.32420488 -77 381 C-78.04993813 381.82884603 -79.0993988 382.65829714 -80.1484375 383.48828125 C-99.88687885 399 -99.88687885 399 -104 399 C-104 399.66 -104 400.32 -104 401 C-133.00808854 417.15412616 -133.00808854 417.15412616 -143 421 C-142.80664062 421.6290625 -142.61328125 422.258125 -142.4140625 422.90625 C-137.65862423 438.53798768 -137.65862423 438.53798768 -138 444 C-137.34 444 -136.68 444 -136 444 C-135.34 447.96 -134.68 451.92 -134 456 C-133.34 456 -132.68 456 -132 456 C-131.49564306 457.9363704 -130.99666126 459.87414146 -130.5 461.8125 C-130.2215625 462.89144531 -129.943125 463.97039062 -129.65625 465.08203125 C-129 468 -129 468 -129 471 C-128.34 471 -127.68 471 -127 471 C-126.80889648 471.55349121 -126.61779297 472.10698242 -126.42089844 472.67724609 C-121.91776105 485.8242402 -121.91776105 485.8242402 -116.89453125 498.77734375 C-115.85186334 501.36807756 -114.92811393 503.99116318 -114 506.625 C-112.59221331 510.53612721 -110.9968681 514.20199287 -109.08203125 517.88671875 C-107.74313481 520.50167534 -106.48928637 523.14890704 -105.25 525.8125 C-104.60804688 527.18341797 -104.60804688 527.18341797 -103.953125 528.58203125 C-103 531 -103 531 -103 534 C-105.24271857 535.12135928 -107.48582513 536.24187002 -109.73046875 537.359375 C-112.17726676 538.58715895 -114.61580726 539.82731731 -117.05078125 541.078125 C-118.47135417 541.80208333 -119.89192708 542.52604167 -121.3125 543.25 C-121.99376953 543.60320313 -122.67503906 543.95640625 -123.37695312 544.3203125 C-126.90858806 546.11217447 -130.02191796 547.47677064 -134 548 C-134 548.66 -134 549.32 -134 550 C-138.34968913 552.21922915 -142.72655143 554.34274716 -147.16552734 556.37841797 C-153.0186414 559.06768659 -158.77015954 561.87478194 -164.4375 564.9375 C-169.80215724 567.83403126 -175.1877253 570.67919047 -180.625 573.4375 C-181.28814209 573.77966553 -181.95128418 574.12183105 -182.63452148 574.47436523 C-186.06760283 576.20344825 -189.17992864 577.48041175 -193 578 C-193 578.66 -193 579.32 -193 580 C-194.32 580.33 -195.64 580.66 -197 581 C-199.91366608 575.38849496 -202.40686963 569.70347039 -204.75390625 563.83203125 C-205.93437446 560.97989986 -205.93437446 560.97989986 -207.5703125 558.421875 C-208.97280416 556.04606945 -209.65058577 554.09866538 -210.3125 551.4375 C-211.78001218 546.2196789 -214.09647056 541.68209266 -216.58203125 536.8828125 C-218.48148997 533.02110303 -219.7565985 529.10766568 -221 525 C-221.81079488 522.64644263 -222.6280033 520.29525209 -223.44921875 517.9453125 C-224 516 -224 516 -224 513 C-224.66 513 -225.32 513 -226 513 C-227.19287411 509.12315913 -228 506.08378077 -228 502 C-228.66 502 -229.32 502 -230 502 C-231.19287411 498.12315913 -232 495.08378077 -232 491 C-232.66 491 -233.32 491 -234 491 C-235.13764351 486.73383684 -236 483.43513689 -236 479 C-236.66 479 -237.32 479 -238 479 C-238.50588147 477.08487728 -239.00448391 475.16783078 -239.5 473.25 C-239.7784375 472.18265625 -240.056875 471.1153125 -240.34375 470.015625 C-241 467 -241 467 -241 463 C-241.66 463 -242.32 463 -243 463 C-243.26554687 461.90300781 -243.53109375 460.80601562 -243.8046875 459.67578125 C-244.16126815 458.22130753 -244.5180496 456.76688302 -244.875 455.3125 C-245.04902344 454.59126953 -245.22304688 453.87003906 -245.40234375 453.12695312 C-246.35414641 449.26686456 -247.48840024 445.68378052 -249 442 C-249.69546227 439.67508686 -250.35726319 437.34003809 -251 435 C-251.32436035 433.84781982 -251.32436035 433.84781982 -251.65527344 432.67236328 C-255.06181158 420.50181653 -257.8303729 408.3988971 -259.70654297 395.89477539 C-260.43932881 391.05418499 -261.30603645 386.61505031 -263 382 C-263.56392759 379.94347509 -264.10595662 377.88080921 -264.625 375.8125 C-265.01558594 374.27529297 -265.01558594 374.27529297 -265.4140625 372.70703125 C-266 370 -266 370 -266 367 C-302.63 367 -339.26 367 -377 367 C-377.66 368.65 -378.32 370.3 -379 372 C-380.01681522 373.57217339 -381.08279066 375.11329248 -382.1875 376.625 C-384.63768356 380.04421107 -386.96845149 383.48917923 -389.1875 387.0625 C-400.95416321 405.71055999 -414.55256083 423.23344882 -428.55712891 440.23681641 C-429.81630048 441.77551981 -431.05632422 443.32985281 -432.29296875 444.88671875 C-445.19759763 461.08408595 -460.30925687 475.44722801 -475 490 C-482.53166208 486.44237005 -487.84403086 479.26529733 -493.1875 473.03125 C-495.2109288 470.76361428 -497.33653347 468.6342305 -499.5 466.5 C-504.53031158 461.52957309 -509.13890904 456.27382812 -513.625 450.8125 C-516.38061051 447.54927703 -519.37786403 444.60171239 -522.41552734 441.60229492 C-528.50861904 435.58195962 -534.46811681 429.54877348 -540 423 C-541.26697907 421.51753063 -542.5377976 420.03833372 -543.8125 418.5625 C-544.37582031 417.90378906 -544.93914062 417.24507812 -545.51953125 416.56640625 C-546.93469208 414.88980014 -546.93469208 414.88980014 -549 414 C-549 412 -549 412 -547.56640625 410.5546875 C-546.90511719 410.00039063 -546.24382812 409.44609375 -545.5625 408.875 C-544.46808594 407.94107422 -544.46808594 407.94107422 -543.3515625 406.98828125 C-542.18753906 406.00408203 -542.18753906 406.00408203 -541 405 C-535.90286565 400.64221107 -531.14542044 396.25418945 -526.8125 391.12890625 C-524.76260865 388.72116749 -522.6345796 386.39539358 -520.5 384.0625 C-516.88731241 380.07928035 -513.58520631 375.95567198 -510.41015625 371.6171875 C-509.94480469 371.08351563 -509.47945312 370.54984375 -509 370 C-508.34 370 -507.68 370 -507 370 C-507 369.34 -507 368.68 -507 368 C-519.21 368 -531.42 368 -544 368 C-544 333.02 -544 298.04 -544 262 C-493.51 261.505 -493.51 261.505 -442 261 C-440.68 258.03 -439.36 255.06 -438 252 C-437.34 250.741875 -436.68 249.48375 -436 248.1875 C-433.80944657 243.89229721 -432.40708715 239.39742271 -430.93359375 234.81640625 C-429.81669809 231.44702646 -428.44126348 228.24284284 -427 225 C-423.52892204 216.82032934 -420.74670867 208.44275206 -418 200 C-417.34 200 -416.68 200 -416 200 C-415.01 193.565 -415.01 193.565 -414 187 C-413.34 187 -412.68 187 -412 187 C-411.85304688 185.78376953 -411.85304688 185.78376953 -411.703125 184.54296875 C-411.55359375 183.43566406 -411.4040625 182.32835937 -411.25 181.1875 C-411.11078125 180.10855469 -410.9715625 179.02960938 -410.828125 177.91796875 C-409.74727885 172.80434287 -407.78615594 167.91192885 -406 163 C-425.8 163 -445.6 163 -466 163 C-466 127.69 -466 92.38 -466 56 C-343.57 56 -221.14 56 -95 56 C-95.66 54.35 -96.32 52.7 -97 51 C-97.34375 48.90234375 -97.34375 48.90234375 -97.5 46.9375 C-97.73255579 43.19230325 -97.73255579 43.19230325 -99.125 40.9375 C-100.50725432 37.87679401 -99.61693221 35.20804749 -99 32 C-93.10135221 29.33426494 -87.22019008 27.47426952 -80.9375 26 C-75.71469066 24.76900428 -70.92250763 23.29598259 -66.08984375 20.94921875 C-60.90291616 18.59328715 -55.69561334 17 -50 17 C-50 16.34 -50 15.68 -50 15 C-48.97261719 14.76925781 -47.94523437 14.53851563 -46.88671875 14.30078125 C-39.37022243 12.55290697 -32.54530309 10.57714206 -25.5859375 7.16015625 C-22.01503275 5.55810382 -18.36643652 4.63848413 -14.578125 3.69140625 C-12.15449801 3.04143356 -9.89165633 2.23984928 -7.5625 1.3125 C-4 0 -4 0 0 0 Z " fill="#FEFEFF" transform="translate(742,209)"/>
<path d="M0 0 C44.55 0 89.1 0 135 0 C134.36299876 9.55501853 133.66460727 18.63658409 132 28 C131.8453125 28.87269531 131.690625 29.74539063 131.53125 30.64453125 C130.55570585 35.80678574 129.28025868 40.84873056 127.86328125 45.90625 C126.81616178 49.65882294 125.81295199 53.42226742 124.8125 57.1875 C124.54397217 58.19623169 124.54397217 58.19623169 124.27001953 59.2253418 C123.84637132 60.81681248 123.42313952 62.40839399 123 64 C122.34 64 121.68 64 121 64 C120.90203125 64.556875 120.8040625 65.11375 120.703125 65.6875 C119.75893168 70.50614175 118.46170704 74.57583737 116.09765625 78.8828125 C114.88061897 81.15530819 114.88061897 81.15530819 113.65234375 84.265625 C108.42837692 96.58522106 99.85715532 107.12985625 91 117 C90.20335937 117.9178125 89.40671875 118.835625 88.5859375 119.78125 C78.73726784 131.01753291 66.97255157 140.55279447 54 148 C53.34 148 52.68 148 52 148 C52 148.66 52 149.32 52 150 C50.35 150.33 48.7 150.66 47 151 C46.49295891 147.62601911 45.99563464 144.25067379 45.5 140.875 C45.35691406 139.92367187 45.21382812 138.97234375 45.06640625 137.9921875 C44.38038663 133.28805294 43.80728993 128.7695743 44 124 C43.34 124 42.68 124 42 124 C41.93268677 123.0884314 41.93268677 123.0884314 41.86401367 122.15844727 C40.77353554 107.37275724 40.77353554 107.37275724 38.4375 92.75 C36.7563793 84.37419629 36.56919186 76.02145283 36.34570312 67.49975586 C36.13453474 59.73446933 35.64411159 52.04742768 34.9375 44.3125 C33.8532771 32.19807737 33.78644979 20.15429258 34 8 C33.19175781 7.95101563 32.38351562 7.90203125 31.55078125 7.8515625 C30.48214844 7.77679688 29.41351562 7.70203125 28.3125 7.625 C27.25675781 7.55539062 26.20101562 7.48578125 25.11328125 7.4140625 C22.04369957 7.00581199 19.85474819 6.14870642 17 5 C13.53715563 4.23850846 10.03131469 3.70528105 6.53125 3.14453125 C4.67575877 2.82497443 2.83557494 2.41908104 1 2 C0.67 1.34 0.34 0.68 0 0 Z " fill="#0184FF" transform="translate(526,372)"/>
<path d="M0 0 C2.3828125 -0.29296875 2.3828125 -0.29296875 5.125 -0.1875 C6.03507812 -0.16042969 6.94515625 -0.13335937 7.8828125 -0.10546875 C8.58148438 -0.07066406 9.28015625 -0.03585937 10 0 C10.04567108 0.92992767 10.09134216 1.85985535 10.13839722 2.81796265 C10.571449 11.61550537 11.01241709 20.41262101 11.46098137 29.20938683 C11.69129847 33.73104012 11.91890099 38.2527949 12.14013672 42.77490234 C12.35405881 47.14541479 12.57532443 51.51550111 12.80151749 55.88539505 C12.88621503 57.54606835 12.96834152 59.20687499 13.0477562 60.8678093 C13.52227984 72.31295789 13.52227984 72.31295789 15.60012817 83.55239868 C16.21575614 87.32063572 16 91.18180564 16 95 C1.15 95 -13.7 95 -29 95 C-27.6394235 88.19711752 -26.61177555 83.47349591 -24 77.375 C-21.87547793 72.30415848 -20.10091705 67.39449353 -19 62 C-18.34 62 -17.68 62 -17 62 C-16.90203125 61.27296875 -16.8040625 60.5459375 -16.703125 59.796875 C-15.57001339 52.17767628 -13.55782811 45.24894854 -11 38 C-9.99833717 34.7004048 -9.09736819 31.4017103 -8.28515625 28.05078125 C-7.89650391 26.44783203 -7.89650391 26.44783203 -7.5 24.8125 C-7.2628125 23.80832031 -7.025625 22.80414063 -6.78125 21.76953125 C-6 19 -6 19 -4.96875 17.015625 C-3.27490202 13.4913284 -3.09440192 9.61938532 -2.5625 5.77734375 C-2 3 -2 3 0 0 Z " fill="#0385FF" transform="translate(443,373)"/>
<path d="M0 0 C44.55 0 89.1 0 135 0 C135 1.98 135 3.96 135 6 C134.67 6 134.34 6 134 6 C134 4.35 134 2.7 134 1 C94.07 1 54.14 1 13 1 C13.33 1.99 13.66 2.98 14 4 C9.03083364 3.48594831 4.70973649 2.76615118 0 1 C0 0.67 0 0.34 0 0 Z " fill="#49A7FF" transform="translate(526,372)"/>
<path d="M0 0 C-4.5711417 3.45167842 -8.68490733 5.89401989 -14 8 C-15.34013497 8.65288627 -16.67741528 9.31225595 -18 10 C-18 11.65 -18 13.3 -18 15 C-20.56687367 11.1496895 -19.83288724 9.41430237 -19 5 C-3.14411441 -1.57205721 -3.14411441 -1.57205721 0 0 Z " fill="#A1D1FF" transform="translate(662,236)"/>
<path d="M0 0 C0.33 0 0.66 0 1 0 C3.00236413 7.32940833 4.51298949 14.40935336 5 22 C2.47903923 19.47903923 2.47795226 17.92091918 1.9375 14.4375 C1.64031837 10.90904834 1.64031837 10.90904834 0 8 C-0.14115161 5.32941149 -0.04247107 2.67567762 0 0 Z " fill="#7BBFFF" transform="translate(479,591)"/>
<path d="M0 0 C1.4540625 0.0309375 1.4540625 0.0309375 2.9375 0.0625 C1.5625 2.0625 1.5625 2.0625 -0.0625 4.0625 C-0.7225 4.0625 -1.3825 4.0625 -2.0625 4.0625 C-2.0625 5.7125 -2.0625 7.3625 -2.0625 9.0625 C-4.21059171 5.84036243 -4.35636153 4.78474599 -4.0625 1.0625 C-3.0625 0.0625 -3.0625 0.0625 0 0 Z " fill="#CCE6FF" transform="translate(646.0625,241.9375)"/>
<path d="M0 0 C2.64 0 5.28 0 8 0 C8.33 0.99 8.66 1.98 9 3 C2.84765625 2.4140625 2.84765625 2.4140625 1 2 C0.67 1.34 0.34 0.68 0 0 Z " fill="#2998FF" transform="translate(531,373)"/>
<path d="M0 0 C0.66 0.33 1.32 0.66 2 1 C-0.64 2.98 -3.28 4.96 -6 7 C-6.33 6.34 -6.66 5.68 -7 5 C-4.69 3.35 -2.38 1.7 0 0 Z " fill="#EFF7FF" transform="translate(651,241)"/>
</svg>
