<?xml version="1.0" encoding="UTF-8"?>
<svg version="1.1" xmlns="http://www.w3.org/2000/svg" width="792" height="792">
<path d="M0 0 C4.02320052 0.01709057 8.04580487 0.006941 12.06898499 -0.0103569 C31.21030489 -0.0795835 49.84796439 0.68695228 68.83007812 3.39111328 C68.83007812 4.05111328 68.83007812 4.71111328 68.83007812 5.39111328 C69.78269531 5.45169922 70.7353125 5.51228516 71.71679688 5.57470703 C72.97105469 5.65849609 74.2253125 5.74228516 75.51757812 5.82861328 C77.37962891 5.95042969 77.37962891 5.95042969 79.27929688 6.07470703 C82.21188149 6.33602645 84.96449429 6.73909707 87.83007812 7.39111328 C87.83007812 8.05111328 87.83007812 8.71111328 87.83007812 9.39111328 C88.64992188 9.45169922 89.46976562 9.51228516 90.31445312 9.57470703 C91.39210938 9.65849609 92.46976562 9.74228516 93.58007812 9.82861328 C94.64742188 9.90982422 95.71476562 9.99103516 96.81445312 10.07470703 C99.26687775 10.33202101 101.46929104 10.70923546 103.83007812 11.39111328 C103.83007812 12.05111328 103.83007812 12.71111328 103.83007812 13.39111328 C104.37792969 13.40529297 104.92578125 13.41947266 105.49023438 13.43408203 C113.75426106 13.93126738 121.12126968 16.59894644 128.83007812 19.39111328 C129.59449219 19.66181641 130.35890625 19.93251953 131.14648438 20.21142578 C139.46810362 23.23431043 147.6090246 26.79796377 155.68164062 30.42626953 C157.15251499 31.08682584 158.62666106 31.74013158 160.10351562 32.38720703 C168.40963493 36.02999314 176.39025531 40.19375174 184.37548828 44.48583984 C188.16335848 46.51883838 191.97492716 48.4872618 195.83007812 50.39111328 C195.83007812 51.05111328 195.83007812 51.71111328 195.83007812 52.39111328 C196.73757813 52.65923828 197.64507813 52.92736328 198.58007812 53.20361328 C201.57918866 54.29944213 203.36834271 55.43870243 205.83007812 57.39111328 C206.82007813 57.72111328 207.81007813 58.05111328 208.83007812 58.39111328 C208.83007812 59.05111328 208.83007812 59.71111328 208.83007812 60.39111328 C210.81007813 61.05111328 212.79007813 61.71111328 214.83007812 62.39111328 C214.83007812 63.05111328 214.83007812 63.71111328 214.83007812 64.39111328 C215.53132812 64.63861328 216.23257813 64.88611328 216.95507812 65.14111328 C220.2252236 66.56291566 222.97120012 68.26357616 225.83007812 70.39111328 C225.83007812 71.05111328 225.83007812 71.71111328 225.83007812 72.39111328 C226.53132812 72.63861328 227.23257813 72.88611328 227.95507812 73.14111328 C232.55958674 75.14307355 236.36702002 77.77748743 239.83007812 81.39111328 C242.03309223 83.17734093 244.2532896 84.93947699 246.48632812 86.68798828 C247.9706948 87.87828231 249.40435389 89.13117093 250.83007812 90.39111328 C250.83007812 91.05111328 250.83007812 91.71111328 250.83007812 92.39111328 C251.55195312 92.61798828 252.27382813 92.84486328 253.01757812 93.07861328 C256.43186619 94.67194771 258.22479027 96.66464924 260.83007812 99.39111328 C262.11412352 100.5041336 263.40644081 101.60765346 264.70507812 102.70361328 C268.83057551 106.27852736 272.33363202 110.21022135 275.83007812 114.39111328 C276.86978271 115.62194004 277.91136425 116.85118447 278.95507812 118.07861328 C279.43460938 118.64322266 279.91414062 119.20783203 280.40820312 119.78955078 C281.78123464 121.33609726 283.21422949 122.77139352 284.70507812 124.20361328 C286.83007812 126.39111328 286.83007812 126.39111328 286.83007812 128.39111328 C287.38695312 128.57673828 287.94382812 128.76236328 288.51757812 128.95361328 C291.44588229 130.77391047 292.8173357 132.97668938 294.68164062 135.83251953 C295.76254747 137.54683843 295.76254747 137.54683843 297.83007812 138.39111328 C298.16007813 139.38111328 298.49007812 140.37111328 298.83007812 141.39111328 C300.47496106 143.07928261 302.14345355 144.74464643 303.83007812 146.39111328 C306.83007812 149.90835466 306.83007812 149.90835466 306.83007812 153.39111328 C307.82007813 153.72111328 308.81007813 154.05111328 309.83007812 154.39111328 C310.16007813 155.38111328 310.49007812 156.37111328 310.83007812 157.39111328 C311.32507813 157.86548828 311.82007813 158.33986328 312.33007812 158.82861328 C314.07193783 160.64305048 314.40862826 161.94670405 314.83007812 164.39111328 C315.49007812 164.39111328 316.15007813 164.39111328 316.83007812 164.39111328 C317.49007812 166.37111328 318.15007813 168.35111328 318.83007812 170.39111328 C319.49007812 170.39111328 320.15007813 170.39111328 320.83007812 170.39111328 C321.33796875 171.28572266 321.84585938 172.18033203 322.36914062 173.10205078 C323.0643001 174.32349205 323.75962413 175.54483968 324.45507812 176.76611328 C324.81537109 177.40009033 325.17566406 178.03406738 325.546875 178.68725586 C328.19334877 183.32619651 330.94544094 187.88749859 333.79882812 192.40283203 C334.83007812 194.39111328 334.83007812 194.39111328 334.83007812 197.39111328 C335.49007812 197.39111328 336.15007813 197.39111328 336.83007812 197.39111328 C337.83704381 199.49195537 338.83543702 201.59690817 339.83007812 203.70361328 C340.66539062 205.46125 340.66539062 205.46125 341.51757812 207.25439453 C342.83007812 210.39111328 342.83007812 210.39111328 342.83007812 213.39111328 C343.49007812 213.39111328 344.15007813 213.39111328 344.83007812 213.39111328 C345.27738281 214.49068359 345.7246875 215.59025391 346.18554688 216.72314453 C346.79575839 218.2168244 347.40647069 219.71029974 348.01757812 221.20361328 C348.33710449 221.98534912 348.65663086 222.76708496 348.98583984 223.57250977 C350.7067461 227.75561581 352.49692429 231.87464746 354.45507812 235.95361328 C356.56097138 240.49422697 358.14342326 245.12392848 359.64257812 249.89111328 C359.86187988 250.58664307 360.08118164 251.28217285 360.30712891 251.9987793 C361.19223377 254.90448068 361.83007812 257.33580089 361.83007812 260.39111328 C362.49007812 260.39111328 363.15007813 260.39111328 363.83007812 260.39111328 C364.9833557 265.33373145 365.36980789 270.34772667 365.83007812 275.39111328 C366.49007812 275.39111328 367.15007813 275.39111328 367.83007812 275.39111328 C369.02096798 280.77138353 370.12203003 285.84402712 369.83007812 291.39111328 C370.49007812 291.39111328 371.15007813 291.39111328 371.83007812 291.39111328 C372.03503906 292.67888672 372.24 293.96666016 372.45117188 295.29345703 C372.72309465 296.97187691 372.99524163 298.65026048 373.26757812 300.32861328 C373.40228516 301.17875 373.53699219 302.02888672 373.67578125 302.90478516 C373.80791016 303.71367187 373.94003906 304.52255859 374.07617188 305.35595703 C374.25684204 306.47925415 374.25684204 306.47925415 374.44116211 307.62524414 C374.66767717 309.40820178 374.66767717 309.40820178 375.83007812 310.39111328 C379.54301022 329.82890013 379.30576109 349.86250632 379.22119141 369.56103516 C379.20410071 373.584266 379.21427138 377.60690114 379.23151779 381.63011169 C379.40563349 429.6031408 379.40563349 429.6031408 373.83007812 444.39111328 C373.40873058 446.67471293 373.03347913 448.96730622 372.70507812 451.26611328 C372.5375 452.41853516 372.36992188 453.57095703 372.19726562 454.75830078 C372.07609375 455.62712891 371.95492187 456.49595703 371.83007812 457.39111328 C371.17007813 457.39111328 370.51007812 457.39111328 369.83007812 457.39111328 C369.76949219 458.21095703 369.70890625 459.03080078 369.64648438 459.87548828 C369.56269531 460.95314453 369.47890625 462.03080078 369.39257812 463.14111328 C369.31136719 464.20845703 369.23015625 465.27580078 369.14648438 466.37548828 C368.88917039 468.8279129 368.51195595 471.03032619 367.83007812 473.39111328 C367.17007813 473.39111328 366.51007812 473.39111328 365.83007812 473.39111328 C365.76949219 474.05498047 365.70890625 474.71884766 365.64648438 475.40283203 C364.8142609 484.17318709 364.8142609 484.17318709 363.83007812 488.39111328 C363.17007813 488.39111328 362.51007812 488.39111328 361.83007812 488.39111328 C361.74371094 488.96216797 361.65734375 489.53322266 361.56835938 490.12158203 C360.26714063 497.63044982 357.69413435 504.35259703 354.83007812 511.39111328 C354.32210197 512.67308554 353.81562711 513.95565355 353.31054688 515.23876953 C350.63211538 522.02548462 347.85867737 528.75149187 344.83007812 535.39111328 C344.17007813 535.39111328 343.51007812 535.39111328 342.83007812 535.39111328 C342.71792969 536.09623047 342.60578125 536.80134766 342.49023438 537.52783203 C341.76692905 540.6650084 340.63550122 543.29239234 339.26757812 546.20361328 C338.81253906 547.17943359 338.3575 548.15525391 337.88867188 549.16064453 C337.53933594 549.89669922 337.19 550.63275391 336.83007812 551.39111328 C336.17007813 551.39111328 335.51007812 551.39111328 334.83007812 551.39111328 C334.70632813 552.41205078 334.70632813 552.41205078 334.58007812 553.45361328 C333.62344879 557.2004115 331.84075538 560.13381613 329.83007812 563.39111328 C329.21390625 564.40044922 328.59773437 565.40978516 327.96289062 566.44970703 C326.57960946 568.7073263 325.19024981 570.96123212 323.79492188 573.21142578 C322.60626016 575.13502546 321.42847384 577.06548639 320.27148438 579.00830078 C319.17627631 580.83473085 318.01138477 582.61915332 316.83007812 584.39111328 C316.17007813 584.39111328 315.51007812 584.39111328 314.83007812 584.39111328 C314.58257813 585.11298828 314.33507812 585.83486328 314.08007812 586.57861328 C311.7910831 591.72885209 307.94439635 595.60160966 303.83007812 599.39111328 C303.17007813 599.39111328 302.51007812 599.39111328 301.83007812 599.39111328 C301.83007812 600.38111328 301.83007812 601.37111328 301.83007812 602.39111328 C300.54492187 603.71533203 300.54492187 603.71533203 298.76757812 605.07861328 C295.14453541 608.00208474 292.25360586 611.25572699 289.31054688 614.85205078 C288.82199219 615.35994141 288.3334375 615.86783203 287.83007812 616.39111328 C287.17007813 616.39111328 286.51007812 616.39111328 285.83007812 616.39111328 C285.83007812 617.05111328 285.83007812 617.71111328 285.83007812 618.39111328 C283.18268896 619.85174179 281.93559478 620.39111328 278.83007812 620.39111328 C278.83007812 621.05111328 278.83007812 621.71111328 278.83007812 622.39111328 C277.90324219 622.59607422 276.97640625 622.80103516 276.02148438 623.01220703 C274.22517578 623.41632813 274.22517578 623.41632813 272.39257812 623.82861328 C270.60013672 624.22886719 270.60013672 624.22886719 268.77148438 624.63720703 C265.95960952 625.09178076 265.95960952 625.09178076 264.83007812 626.39111328 C258.50370438 626.81418338 252.75543197 626.81512167 246.83007812 624.39111328 C244.17485803 623.67138329 241.50468455 623.03670794 238.83007812 622.39111328 C238.83007812 621.73111328 238.83007812 621.07111328 238.83007812 620.39111328 C236.52007813 619.73111328 234.21007812 619.07111328 231.83007812 618.39111328 C231.83007812 617.73111328 231.83007812 617.07111328 231.83007812 616.39111328 C231.12882813 616.20548828 230.42757812 616.01986328 229.70507812 615.82861328 C224.55404609 613.25309727 221.56649293 608.5114384 218.39257812 603.82861328 C216.15826578 600.61005402 213.56333496 598.32862371 210.53320312 595.87158203 C208.84294603 594.40229892 207.48128959 592.88418658 206.08007812 591.14111328 C203.94228526 588.25451329 203.94228526 588.25451329 200.83007812 586.39111328 C200.83007812 585.73111328 200.83007812 585.07111328 200.83007812 584.39111328 C199.18007813 583.73111328 197.53007813 583.07111328 195.83007812 582.39111328 C195.83007812 581.73111328 195.83007812 581.07111328 195.83007812 580.39111328 C194.18007813 579.73111328 192.53007813 579.07111328 190.83007812 578.39111328 C190.83007812 577.73111328 190.83007812 577.07111328 190.83007812 576.39111328 C189.90195312 576.12298828 188.97382812 575.85486328 188.01757812 575.57861328 C184.97319218 574.44443028 183.9329619 573.6942717 181.83007812 571.39111328 C180.84007812 571.06111328 179.85007812 570.73111328 178.83007812 570.39111328 C178.83007812 569.73111328 178.83007812 569.07111328 178.83007812 568.39111328 C176.85007812 567.73111328 174.87007812 567.07111328 172.83007812 566.39111328 C172.83007812 565.73111328 172.83007812 565.07111328 172.83007812 564.39111328 C169.86007812 563.73111328 166.89007812 563.07111328 163.83007812 562.39111328 C163.83007812 561.73111328 163.83007812 561.07111328 163.83007812 560.39111328 C160.86007812 559.73111328 157.89007812 559.07111328 154.83007812 558.39111328 C154.83007812 557.73111328 154.83007812 557.07111328 154.83007812 556.39111328 C150.54007813 555.73111328 146.25007812 555.07111328 141.83007812 554.39111328 C141.83007812 554.06111328 141.83007812 553.73111328 141.83007812 553.39111328 C134.17750089 552.01551912 126.58459618 550.97117566 118.83007812 550.39111328 C118.83007812 550.06111328 118.83007812 549.73111328 118.83007812 549.39111328 C114.06120175 549.36636265 109.29236292 549.34822925 104.5234375 549.33618164 C102.90168608 549.33115823 101.27993918 549.32433835 99.65820312 549.31567383 C97.32485844 549.30352099 94.99157373 549.297865 92.65820312 549.29345703 C91.93513977 549.28829575 91.21207642 549.28313446 90.46710205 549.27781677 C87.10995063 549.2774441 84.03901705 549.3420371 80.83007812 550.39111328 C80.50007813 549.07111328 80.17007812 547.75111328 79.83007812 546.39111328 C80.49007813 546.39111328 81.15007812 546.39111328 81.83007812 546.39111328 C82.16007812 545.40111328 82.49007813 544.41111328 82.83007812 543.39111328 C84.49674479 541.72444661 86.16341146 540.05777995 87.83007812 538.39111328 C96.43623431 528.85956395 100.94165986 516.6453818 101.01757812 503.89111328 C101.03175781 502.80830078 101.0459375 501.72548828 101.06054688 500.60986328 C100.81704512 497.20909303 100.03500233 494.56931916 98.83007812 491.39111328 C98.58386719 490.68986328 98.33765625 489.98861328 98.08398438 489.26611328 C93.89504336 477.90627323 87.60395908 471.48131845 77.83007812 464.39111328 C76.84007812 464.06111328 75.85007812 463.73111328 74.83007812 463.39111328 C74.83007812 462.73111328 74.83007812 462.07111328 74.83007812 461.39111328 C61.55805326 459.11321965 48.01782995 457.44317142 35.83007812 464.39111328 C35.02570313 464.81005859 34.22132813 465.22900391 33.39257812 465.66064453 C28.99538631 467.93263248 28.99538631 467.93263248 25.19726562 471.04345703 C23.83007812 472.39111328 23.83007812 472.39111328 21.83007812 472.39111328 C21.50007813 473.38111328 21.17007812 474.37111328 20.83007812 475.39111328 C19.44604492 476.75390625 19.44604492 476.75390625 17.59179688 478.25830078 C11.2505182 483.63955087 5.49722276 489.6181856 -0.35742188 495.51611328 C-1.5310139 496.69473383 -2.70484047 497.8731209 -3.87890625 499.05126953 C-6.51368377 501.69594286 -9.14653243 504.34250998 -11.77597046 506.99249268 C-13.15068331 508.37181027 -14.53585271 509.74068058 -15.92114258 511.109375 C-18.20414555 513.33294511 -18.20414555 513.33294511 -20.04492188 515.82861328 C-21.82998841 517.98119351 -23.47542411 519.56039051 -25.60742188 521.32861328 C-27.94647145 523.27037206 -29.69623729 525.02269178 -31.66992188 527.39111328 C-34.09073362 530.29608738 -36.58773489 532.49551026 -39.48242188 534.89111328 C-41.41547504 536.5344357 -41.41547504 536.5344357 -43.66992188 539.39111328 C-46.09073362 542.29608738 -48.58773489 544.49551026 -51.48242188 546.89111328 C-53.41547504 548.5344357 -53.41547504 548.5344357 -55.66992188 551.39111328 C-58.09073362 554.29608738 -60.58773489 556.49551026 -63.48242188 558.89111328 C-65.41547504 560.5344357 -65.41547504 560.5344357 -67.66992188 563.39111328 C-69.63001754 565.74322808 -71.34696336 567.46866485 -73.66992188 569.39111328 C-75.96918261 571.29480228 -77.67346247 572.99794425 -79.60742188 575.32861328 C-82.28279332 578.52600843 -85.16623649 581.04626371 -88.33007812 583.73876953 C-90.30944721 585.42581345 -90.30944721 585.42581345 -92.16992188 587.89111328 C-93.89696901 590.04992221 -95.45491519 591.54333129 -97.55273438 593.30126953 C-101.16023097 596.42216978 -104.56086996 599.71440452 -107.91210938 603.10595703 C-108.41091614 603.61031281 -108.9097229 604.11466858 -109.42364502 604.63430786 C-111.49706118 606.73527071 -113.56648004 608.84008737 -115.63183594 610.94897461 C-117.15845857 612.50560979 -118.69109234 614.05611792 -120.22460938 615.60595703 C-121.12679199 616.52497803 -122.02897461 617.44399902 -122.95849609 618.39086914 C-125.16992188 620.39111328 -125.16992188 620.39111328 -127.16992188 620.39111328 C-127.82992187 621.71111328 -128.48992187 623.03111328 -129.16992188 624.39111328 C-129.82992187 624.39111328 -130.48992187 624.39111328 -131.16992188 624.39111328 C-131.49992188 625.38111328 -131.82992187 626.37111328 -132.16992188 627.39111328 C-133.87695312 629.14501953 -133.87695312 629.14501953 -135.98242188 630.95361328 C-136.66949219 631.55302734 -137.3565625 632.15244141 -138.06445312 632.77001953 C-140.16992187 634.39111328 -140.16992187 634.39111328 -142.36914062 635.41845703 C-144.52577833 636.31797795 -144.52577833 636.31797795 -145.16992188 639.39111328 C-146.55959729 640.59128751 -147.95201514 641.79094333 -149.40429688 642.91455078 C-151.81045334 644.92677897 -153.95539871 647.17013379 -156.16992188 649.39111328 C-158.19180037 651.28796159 -160.24217548 653.15277241 -162.29492188 655.01611328 C-166.17642949 658.5178126 -166.17642949 658.5178126 -169.90039062 662.18408203 C-171.53287575 663.73619866 -172.98193277 664.01387378 -175.16992188 664.39111328 C-175.16992188 665.05111328 -175.16992188 665.71111328 -175.16992188 666.39111328 C-178.81291537 668.11387469 -182.48033183 669.77058746 -186.16992188 671.39111328 C-186.89824219 671.72111328 -187.6265625 672.05111328 -188.37695312 672.39111328 C-197.01849721 675.82790328 -207.55147674 675.67893527 -216.16992188 672.39111328 C-216.84796875 672.16810547 -217.52601563 671.94509766 -218.22460938 671.71533203 C-229.36726041 667.81779529 -238.96661378 660.47148894 -245.16992188 650.39111328 C-245.16992188 649.40111328 -245.16992188 648.41111328 -245.16992188 647.39111328 C-245.82992187 647.39111328 -246.48992187 647.39111328 -247.16992188 647.39111328 C-250.7202503 640.04442401 -251.77338784 633.88238411 -251.60742188 625.76611328 C-251.61451172 624.78126953 -251.62160156 623.79642578 -251.62890625 622.78173828 C-251.57542547 616.61087922 -250.66126137 612.03307804 -248.16992188 606.39111328 C-247.83992188 605.40111328 -247.50992188 604.41111328 -247.16992188 603.39111328 C-246.50992188 603.39111328 -245.84992188 603.39111328 -245.16992188 603.39111328 C-244.98429687 602.73111328 -244.79867187 602.07111328 -244.60742188 601.39111328 C-240.57247992 592.97036485 -232.31888498 586.42710211 -225.72802734 579.93334961 C-223.53346398 577.76113764 -221.35296637 575.57489022 -219.16992188 573.39111328 C-217.68996356 571.91111066 -216.2099803 570.43113298 -214.72998047 568.95117188 C-213.87208923 568.09328064 -213.014198 567.2353894 -212.13031006 566.35150146 C-181.9568278 536.17801921 -151.78334554 506.00453695 -121.60986328 475.83105469 C-120.82750305 475.04796936 -120.04514282 474.26488403 -119.23907471 473.45806885 C-118.00179956 472.22210758 -116.7622929 470.98836483 -115.51824951 469.75921631 C-113.62718353 467.88974586 -111.92050638 466.06687313 -110.29492188 463.95361328 C-108.50985534 461.80103305 -106.86441964 460.22183605 -104.73242188 458.45361328 C-102.3933723 456.5118545 -100.64360646 454.75953478 -98.66992188 452.39111328 C-96.24911013 449.48613918 -93.75210886 447.2867163 -90.85742188 444.89111328 C-88.92436871 443.24779086 -88.92436871 443.24779086 -86.66992188 440.39111328 C-84.24911013 437.48613918 -81.75210886 435.2867163 -78.85742188 432.89111328 C-76.92436871 431.24779086 -76.92436871 431.24779086 -74.66992188 428.39111328 C-72.24911013 425.48613918 -69.75210886 423.2867163 -66.85742188 420.89111328 C-64.92436871 419.24779086 -64.92436871 419.24779086 -62.66992188 416.39111328 C-60.73604572 414.0704619 -59.08626437 412.400106 -56.79492188 410.51611328 C-48.9402083 403.90520468 -44.41472943 396.72036065 -40.16992188 387.39111328 C-39.50992187 387.39111328 -38.84992188 387.39111328 -38.16992188 387.39111328 C-37.39171426 381.17167802 -36.98750359 375.09436593 -36.98242188 368.82861328 C-36.97017578 368.03003906 -36.95792969 367.23146484 -36.9453125 366.40869141 C-36.9175731 355.06327607 -40.78006462 345.02314027 -48.16992188 336.39111328 C-49.24998879 335.42594711 -50.35394522 334.48670508 -51.48242188 333.57861328 C-52.36929687 332.85673828 -53.25617188 332.13486328 -54.16992188 331.39111328 C-54.16992188 330.73111328 -54.16992188 330.07111328 -54.16992188 329.39111328 C-56.14992188 328.73111328 -58.12992187 328.07111328 -60.16992188 327.39111328 C-60.16992188 326.73111328 -60.16992188 326.07111328 -60.16992188 325.39111328 C-62.80992187 324.73111328 -65.44992187 324.07111328 -68.16992188 323.39111328 C-68.16992188 322.73111328 -68.16992188 322.07111328 -68.16992188 321.39111328 C-78.59803472 320.68208887 -88.75828141 320.04030164 -99.16992188 321.39111328 C-99.16992188 322.05111328 -99.16992188 322.71111328 -99.16992188 323.39111328 C-102.13992188 324.05111328 -105.10992187 324.71111328 -108.16992188 325.39111328 C-108.16992188 326.05111328 -108.16992188 326.71111328 -108.16992188 327.39111328 C-109.31460938 327.79330078 -109.31460938 327.79330078 -110.48242188 328.20361328 C-113.16052099 329.19369463 -113.16052099 329.19369463 -114.73242188 330.95361328 C-116.16992188 332.39111328 -116.16992188 332.39111328 -118.29492188 332.89111328 C-118.91367187 333.05611328 -119.53242188 333.22111328 -120.16992188 333.39111328 C-120.49992188 334.38111328 -120.82992187 335.37111328 -121.16992188 336.39111328 C-122.62200357 337.61218198 -124.07814153 338.82913672 -125.56445312 340.00830078 C-127.42644348 341.534525 -127.42644348 341.534525 -129.60742188 344.32861328 C-131.59352454 346.70224817 -133.32329457 348.44995074 -135.66992188 350.39111328 C-137.99288039 352.31356171 -139.70982621 354.03899848 -141.66992188 356.39111328 C-144.09073362 359.29608738 -146.58773489 361.49551026 -149.48242188 363.89111328 C-151.41547504 365.5344357 -151.41547504 365.5344357 -153.66992188 368.39111328 C-156.09073362 371.29608738 -158.58773489 373.49551026 -161.48242188 375.89111328 C-163.41547504 377.5344357 -163.41547504 377.5344357 -165.66992188 380.39111328 C-168.09073362 383.29608738 -170.58773489 385.49551026 -173.48242188 387.89111328 C-175.41547504 389.5344357 -175.41547504 389.5344357 -177.66992188 392.39111328 C-180.09073362 395.29608738 -182.58773489 397.49551026 -185.48242188 399.89111328 C-187.41547504 401.5344357 -187.41547504 401.5344357 -189.66992188 404.39111328 C-192.09073362 407.29608738 -194.58773489 409.49551026 -197.48242188 411.89111328 C-199.41547504 413.5344357 -199.41547504 413.5344357 -201.66992188 416.39111328 C-204.09073362 419.29608738 -206.58773489 421.49551026 -209.48242188 423.89111328 C-211.41547504 425.5344357 -211.41547504 425.5344357 -213.66992188 428.39111328 C-216.09073362 431.29608738 -218.58773489 433.49551026 -221.48242188 435.89111328 C-223.41547504 437.5344357 -223.41547504 437.5344357 -225.66992188 440.39111328 C-228.09073362 443.29608738 -230.58773489 445.49551026 -233.48242188 447.89111328 C-235.41547504 449.5344357 -235.41547504 449.5344357 -237.66992188 452.39111328 C-239.63001754 454.74322808 -241.34696336 456.46866485 -243.66992188 458.39111328 C-245.96918261 460.29480228 -247.67346247 461.99794425 -249.60742188 464.32861328 C-252.79311271 468.13590232 -256.3906084 471.19055076 -260.16992188 474.39111328 C-265.57077583 479.04235397 -265.57077583 479.04235397 -270.73242188 483.95361328 C-273.71268142 486.93387282 -276.7652365 489.89548748 -280.16992188 492.39111328 C-280.82992187 492.39111328 -281.48992187 492.39111328 -282.16992188 492.39111328 C-282.49992187 493.38111328 -282.82992187 494.37111328 -283.16992188 495.39111328 C-284.06710937 495.82423828 -284.06710937 495.82423828 -284.98242188 496.26611328 C-287.37670649 497.2732967 -287.37670649 497.2732967 -288.79492188 499.82861328 C-291.87710027 503.15412155 -294.71132231 503.72657576 -299.02539062 504.81298828 C-301.13574165 505.19070592 -301.13574165 505.19070592 -302.16992188 506.39111328 C-304.55211684 506.65844189 -306.90502848 506.86104386 -309.29492188 507.01611328 C-311.24785156 507.15919922 -311.24785156 507.15919922 -313.24023438 507.30517578 C-327.19381486 507.61032366 -338.78036924 501.74321229 -348.79492188 492.26611328 C-351.69215223 489.41618464 -352.65256267 487.43210816 -353.16992188 483.39111328 C-353.82992187 483.39111328 -354.48992187 483.39111328 -355.16992188 483.39111328 C-355.49992187 480.09111328 -355.82992187 476.79111328 -356.16992188 473.39111328 C-356.82992187 473.39111328 -357.48992187 473.39111328 -358.16992188 473.39111328 C-359.36081173 468.01084303 -360.46187378 462.93819944 -360.16992188 457.39111328 C-360.82992188 457.39111328 -361.48992187 457.39111328 -362.16992188 457.39111328 C-362.37488281 456.10333984 -362.57984375 454.81556641 -362.79101562 453.48876953 C-363.0629384 451.81034965 -363.33508538 450.13196608 -363.60742188 448.45361328 C-363.74212891 447.60347656 -363.87683594 446.75333984 -364.015625 445.87744141 C-364.14775391 445.06855469 -364.27988281 444.25966797 -364.41601562 443.42626953 C-364.5364624 442.67740479 -364.65690918 441.92854004 -364.78100586 441.15698242 C-365.00752092 439.37402478 -365.00752092 439.37402478 -366.16992188 438.39111328 C-369.88285397 418.95332644 -369.64560484 398.91972024 -369.56103516 379.22119141 C-369.54394446 375.19796056 -369.55411513 371.17532543 -369.57136154 367.15211487 C-369.74547724 319.17908576 -369.74547724 319.17908576 -364.16992188 304.39111328 C-363.74857433 302.10751363 -363.37332288 299.81492034 -363.04492188 297.51611328 C-362.87734375 296.36369141 -362.70976562 295.21126953 -362.53710938 294.02392578 C-362.35535156 292.72068359 -362.35535156 292.72068359 -362.16992188 291.39111328 C-361.50992187 291.39111328 -360.84992188 291.39111328 -360.16992188 291.39111328 C-360.10933594 290.57126953 -360.04875 289.75142578 -359.98632812 288.90673828 C-359.90253906 287.82908203 -359.81875 286.75142578 -359.73242188 285.64111328 C-359.65121094 284.57376953 -359.57 283.50642578 -359.48632812 282.40673828 C-359.22901414 279.95431366 -358.8517997 277.75190037 -358.16992188 275.39111328 C-357.50992188 275.39111328 -356.84992188 275.39111328 -356.16992188 275.39111328 C-356.10933594 274.72724609 -356.04875 274.06337891 -355.98632812 273.37939453 C-355.15410465 264.60903947 -355.15410465 264.60903947 -354.16992188 260.39111328 C-353.50992188 260.39111328 -352.84992188 260.39111328 -352.16992188 260.39111328 C-352.07195312 259.78525391 -351.97398437 259.17939453 -351.87304688 258.55517578 C-350.71883568 252.08761303 -348.74856362 246.41428753 -346.16992188 240.39111328 C-345.56170762 238.87189414 -344.95762441 237.35101543 -344.35742188 235.82861328 C-341.35794332 228.32389385 -338.25491942 220.8609669 -335.16992188 213.39111328 C-334.50992188 213.39111328 -333.84992188 213.39111328 -333.16992188 213.39111328 C-333.05777344 212.68599609 -332.945625 211.98087891 -332.83007812 211.25439453 C-332.1067728 208.11721816 -330.97534497 205.48983422 -329.60742188 202.57861328 C-329.15238281 201.60279297 -328.69734375 200.62697266 -328.22851562 199.62158203 C-327.70451172 198.5175 -327.70451172 198.5175 -327.16992188 197.39111328 C-326.50992188 197.39111328 -325.84992188 197.39111328 -325.16992188 197.39111328 C-325.0590625 196.83423828 -324.94820312 196.27736328 -324.83398438 195.70361328 C-323.4621512 190.92640599 -320.60585579 186.69459654 -318.16992188 182.39111328 C-317.54859375 181.27349609 -316.92726563 180.15587891 -316.28710938 179.00439453 C-315.36285156 177.37050781 -315.36285156 177.37050781 -314.41992188 175.70361328 C-313.56140625 174.181875 -313.56140625 174.181875 -312.68554688 172.62939453 C-312.18539062 171.89076172 -311.68523437 171.15212891 -311.16992188 170.39111328 C-310.50992188 170.39111328 -309.84992188 170.39111328 -309.16992188 170.39111328 C-308.17992187 167.42111328 -308.17992187 167.42111328 -307.16992188 164.39111328 C-306.50992188 164.39111328 -305.84992188 164.39111328 -305.16992188 164.39111328 C-304.88117188 163.42173828 -304.59242188 162.45236328 -304.29492188 161.45361328 C-303.16992188 158.39111328 -303.16992188 158.39111328 -301.16992188 157.39111328 C-300.03641654 155.37441501 -300.03641654 155.37441501 -299.16992188 153.39111328 C-298.50992188 153.39111328 -297.84992188 153.39111328 -297.16992188 153.39111328 C-297.05519531 152.80716797 -296.94046875 152.22322266 -296.82226562 151.62158203 C-296.12292119 149.23041034 -295.19686689 147.70690454 -293.73242188 145.70361328 C-293.30058594 145.10162109 -292.86875 144.49962891 -292.42382812 143.87939453 C-291.16992188 142.39111328 -291.16992188 142.39111328 -289.16992188 141.39111328 C-288.83992188 140.40111328 -288.50992188 139.41111328 -288.16992188 138.39111328 C-286.52562358 136.7023745 -284.8560797 135.03805813 -283.16992188 133.39111328 C-282.08710938 131.99892578 -282.08710938 131.99892578 -280.98242188 130.57861328 C-280.38429688 129.85673828 -279.78617187 129.13486328 -279.16992188 128.39111328 C-278.50992188 128.39111328 -277.84992188 128.39111328 -277.16992188 128.39111328 C-276.904375 127.80845703 -276.63882813 127.22580078 -276.36523438 126.62548828 C-272.59315 119.57440245 -265.81767383 113.94273329 -260.16992188 108.39111328 C-258.93242187 107.12267578 -258.93242187 107.12267578 -257.66992188 105.82861328 C-254.88520471 103.11351404 -251.97752568 100.57909829 -249.03320312 98.03955078 C-247.56345675 96.73927202 -246.1643877 95.35911768 -244.79492188 93.95361328 C-243.16992188 92.39111328 -243.16992188 92.39111328 -241.16992188 92.39111328 C-240.83992187 91.40111328 -240.50992188 90.41111328 -240.16992188 89.39111328 C-238.55255928 87.99838438 -236.87742167 86.67173813 -235.16992188 85.39111328 C-234.34492188 84.73111328 -233.51992187 84.07111328 -232.66992188 83.39111328 C-231.84492188 82.73111328 -231.01992187 82.07111328 -230.16992188 81.39111328 C-229.38617188 80.75173828 -228.60242188 80.11236328 -227.79492188 79.45361328 C-225.71059357 77.81592676 -223.61785805 76.21063676 -221.48242188 74.64111328 C-220.90105469 74.21314453 -220.3196875 73.78517578 -219.72070312 73.34423828 C-218.16992187 72.39111328 -218.16992187 72.39111328 -216.16992188 72.39111328 C-216.16992188 71.73111328 -216.16992188 71.07111328 -216.16992188 70.39111328 C-214.27148438 68.88330078 -214.27148438 68.88330078 -211.79492188 67.26611328 C-210.9828125 66.72728516 -210.17070312 66.18845703 -209.33398438 65.63330078 C-207.16992188 64.39111328 -207.16992188 64.39111328 -205.16992188 64.39111328 C-205.16992188 63.73111328 -205.16992188 63.07111328 -205.16992188 62.39111328 C-203.18992188 61.73111328 -201.20992187 61.07111328 -199.16992188 60.39111328 C-199.16992188 59.73111328 -199.16992188 59.07111328 -199.16992188 58.39111328 C-198.28304687 57.95798828 -197.39617187 57.52486328 -196.48242188 57.07861328 C-193.21886338 55.47107447 -193.21886338 55.47107447 -190.41992188 53.70361328 C-188.16992188 52.39111328 -188.16992188 52.39111328 -186.16992188 52.39111328 C-186.16992188 51.73111328 -186.16992188 51.07111328 -186.16992188 50.39111328 C-185.326875 49.97474609 -184.48382813 49.55837891 -183.61523438 49.12939453 C-180.06012386 47.33571633 -176.55068151 45.46594371 -173.04492188 43.57861328 C-161.95384888 37.64867878 -150.77543719 32.25324127 -139.16992188 27.39111328 C-138.20570313 26.96958984 -137.24148437 26.54806641 -136.24804688 26.11376953 C-128.12888728 22.60369087 -119.80312847 19.83443056 -111.39282227 17.11987305 C-109.83812158 16.61017711 -108.28812475 16.08600882 -106.74194336 15.55102539 C-105.94989502 15.27782471 -105.15784668 15.00462402 -104.34179688 14.72314453 C-103.27010254 14.34766479 -103.27010254 14.34766479 -102.17675781 13.96459961 C-99.46937364 13.19092012 -96.96290793 13.1762682 -94.16992188 13.39111328 C-94.16992188 12.73111328 -94.16992188 12.07111328 -94.16992188 11.39111328 C-88.78965163 10.20022342 -83.71700803 9.09916138 -78.16992188 9.39111328 C-78.16992188 8.73111328 -78.16992188 8.07111328 -78.16992188 7.39111328 C-76.12920672 7.05200334 -74.08729566 6.72008624 -72.04492188 6.39111328 C-70.90796875 6.20548828 -69.77101563 6.01986328 -68.59960938 5.82861328 C-65.40854585 5.42155279 -62.38174396 5.31301426 -59.16992188 5.39111328 C-59.16992188 4.73111328 -59.16992188 4.07111328 -59.16992188 3.39111328 C-39.38108153 0.57202732 -19.95161985 -0.08578318 0 0 Z M-17.16992188 230.39111328 C-17.16992188 231.05111328 -17.16992188 231.71111328 -17.16992188 232.39111328 C-19.14992188 233.38111328 -19.14992188 233.38111328 -21.16992188 234.39111328 C-21.16992188 235.05111328 -21.16992188 235.71111328 -21.16992188 236.39111328 C-21.77320313 236.63990234 -22.37648438 236.88869141 -22.99804688 237.14501953 C-25.51068789 238.58662472 -26.43412552 239.86604339 -27.91992188 242.32861328 C-28.34789062 243.01826172 -28.77585937 243.70791016 -29.21679688 244.41845703 C-30.38744598 246.47617534 -30.38744598 246.47617534 -30.16992188 249.39111328 C-30.82992188 249.39111328 -31.48992187 249.39111328 -32.16992188 249.39111328 C-33.46235723 253.51075098 -34.43244813 257.05943011 -34.16992188 261.39111328 C-34.82992188 261.39111328 -35.48992187 261.39111328 -36.16992188 261.39111328 C-36.16992188 265.35111328 -36.16992188 269.31111328 -36.16992188 273.39111328 C-35.50992187 273.39111328 -34.84992188 273.39111328 -34.16992188 273.39111328 C-34.21117187 274.40173828 -34.25242187 275.41236328 -34.29492188 276.45361328 C-34.16418345 280.5718738 -33.43741401 283.50941862 -32.16992188 287.39111328 C-31.50992187 287.39111328 -30.84992188 287.39111328 -30.16992188 287.39111328 C-30.14929688 288.19548828 -30.12867188 288.99986328 -30.10742188 289.82861328 C-28.10231262 297.44802844 -21.1989733 304.4437914 -15.16992188 309.39111328 C-14.50992187 309.39111328 -13.84992188 309.39111328 -13.16992188 309.39111328 C-13.16992188 310.05111328 -13.16992188 310.71111328 -13.16992188 311.39111328 C-7.43877078 314.98634927 -2.95974695 317.02075919 3.83007812 317.39111328 C3.83007812 318.05111328 3.83007812 318.71111328 3.83007812 319.39111328 C16.45037382 320.38664632 25.97216254 320.61539986 37.83007812 315.39111328 C37.83007812 314.73111328 37.83007812 314.07111328 37.83007812 313.39111328 C38.91482422 313.02373047 38.91482422 313.02373047 40.02148438 312.64892578 C47.95722352 309.09495081 54.11157714 301.52063515 58.83007812 294.39111328 C59.59320313 293.31861328 60.35632813 292.24611328 61.14257812 291.14111328 C63.83222022 286.35332714 63.65388667 280.75614295 63.83007812 275.39111328 C64.49007812 275.39111328 65.15007812 275.39111328 65.83007812 275.39111328 C65.83007812 273.41111328 65.83007812 271.43111328 65.83007812 269.39111328 C65.50007813 269.39111328 65.17007813 269.39111328 64.83007812 269.39111328 C63.84007812 264.11111328 62.85007812 258.83111328 61.83007812 253.39111328 C61.17007813 253.39111328 60.51007813 253.39111328 59.83007812 253.39111328 C59.745 252.52099609 59.65992188 251.65087891 59.57226562 250.75439453 C58.71922574 246.88877697 57.31386465 244.73662234 54.95507812 241.57861328 C54.25640625 240.62341797 53.55773437 239.66822266 52.83789062 238.68408203 C50.96477 236.15522867 50.96477 236.15522867 47.83007812 235.39111328 C47.33507812 233.90611328 47.33507812 233.90611328 46.83007812 232.39111328 C43.20047737 229.41909316 43.20047737 229.41909316 38.83007812 228.39111328 C38.83007812 227.73111328 38.83007812 227.07111328 38.83007812 226.39111328 C36.60243824 225.57421151 34.37312953 224.76249456 32.14257812 223.95361328 C31.51673828 223.72351563 30.89089844 223.49341797 30.24609375 223.25634766 C13.63751102 217.25638845 -3.16376052 219.88649226 -17.16992188 230.39111328 Z " fill="#00A0FF" transform="translate(391.169921875,21.60888671875)"/>
<path d="M0 0 C4.62 0 9.24 0 14 0 C14 0.66 14 1.32 14 2 C15.918125 1.938125 15.918125 1.938125 17.875 1.875 C23.08872856 1.85842217 27.94007672 2.81688642 33 4 C33 4.66 33 5.32 33 6 C34.093125 6.144375 35.18625 6.28875 36.3125 6.4375 C40 7 40 7 43 8 C43 8.66 43 9.32 43 10 C44.175625 10.2165625 44.175625 10.2165625 45.375 10.4375 C48 11 48 11 50 12 C50 12.66 50 13.32 50 14 C51.3921875 14.4021875 51.3921875 14.4021875 52.8125 14.8125 C55.96142381 15.98562848 56.85989244 16.592379 59 19 C59.99 19.804375 60.98 20.60875 62 21.4375 C64.46532636 23.5432996 66.30433499 25.26809526 68 28 C68 28.66 68 29.32 68 30 C68.5775 30.20625 69.155 30.4125 69.75 30.625 C72.84477636 32.51625222 74.1918763 34.90035937 76 38 C76 38.66 76 39.32 76 40 C76.66 40.33 77.32 40.66 78 41 C80 44 80 44 80 47 C80.66 47 81.32 47 82 47 C82.20496094 48.07121094 82.40992188 49.14242187 82.62109375 50.24609375 C82.89302709 51.64326851 83.16517352 53.04040181 83.4375 54.4375 C83.57220703 55.14455078 83.70691406 55.85160156 83.84570312 56.58007812 C84.28406898 60.08429264 84.28406898 60.08429264 86 63 C86.33885227 67.74393175 85.40075245 71.48646434 84 76 C83.30790721 78.66081619 82.65581135 81.32991092 82 84 C81.34 84 80.68 84 80 84 C79.87044922 85.27037109 79.87044922 85.27037109 79.73828125 86.56640625 C78.88890837 90.51666424 77.28232853 93.54219975 75.1875 96.9375 C74.7965918 97.58066162 74.40568359 98.22382324 74.00292969 98.88647461 C69.68148745 105.80430785 64.62028962 112.11976947 59.37255859 118.3515625 C58.46602006 119.44031173 57.57770433 120.54452654 56.70947266 121.6640625 C54.0757361 125.01777632 51.73337993 127.06970297 47.875 128.875 C47.02679688 129.28492188 46.17859375 129.69484375 45.3046875 130.1171875 C43 131 43 131 40 131 C40 131.66 40 132.32 40 133 C35.73383684 134.13764351 32.43513689 135 28 135 C28 135.66 28 136.32 28 137 C16.22700605 140.06814152 4.4585512 143.05244552 -7.5 145.3125 C-8.34006592 145.47137695 -9.18013184 145.63025391 -10.0456543 145.79394531 C-18.22882995 147.29453772 -26.12585798 148.15308412 -34.44140625 148.1328125 C-35.76941505 148.13424759 -35.76941505 148.13424759 -37.12425232 148.13571167 C-38.99079459 148.13638878 -40.85733928 148.13456737 -42.72387695 148.13037109 C-45.53016686 148.12506118 -48.33629343 148.13030889 -51.14257812 148.13671875 C-79.50595853 148.15115735 -79.50595853 148.15115735 -88 145 C-88 144.34 -88 143.68 -88 143 C-89.65 142.34 -91.3 141.68 -93 141 C-93 140.34 -93 139.68 -93 139 C-94.65 138.34 -96.3 137.68 -98 137 C-98 136.34 -98 135.68 -98 135 C-98.58652344 134.77570313 -99.17304688 134.55140625 -99.77734375 134.3203125 C-106.24895039 130.47601893 -109.90779238 120.97402539 -112 114 C-115.05372271 99.28660876 -112.50636776 85.75150607 -104.80859375 73.03125 C-102.24398345 69.17163846 -99.2713053 66.37668555 -95.6875 63.46484375 C-93.74692033 61.85945687 -93.74692033 61.85945687 -91.5 59 C-88.66505 55.59806 -85.61870789 52.57046757 -82 50 C-81.34 50 -80.68 50 -80 50 C-79.67 49.01 -79.34 48.02 -79 47 C-77.55198937 45.7823547 -76.09958462 44.56903443 -74.61328125 43.3984375 C-72.98112074 41.98363493 -71.75096233 40.52208589 -70.4375 38.8125 C-67.99066154 35.98922485 -66.5332325 35.009495 -63 34 C-63 33.34 -63 32.68 -63 32 C-61.3203125 30.4921875 -61.3203125 30.4921875 -59.125 28.875 C-58.40570313 28.33617187 -57.68640625 27.79734375 -56.9453125 27.2421875 C-55 26 -55 26 -53 26 C-52.505 24.515 -52.505 24.515 -52 23 C-42.1 14 -42.1 14 -37 14 C-37 13.34 -37 12.68 -37 12 C-31.33492989 8.91099799 -26.49142565 6.42335385 -20 6 C-20 5.34 -20 4.68 -20 4 C-13.2168636 2.57997892 -6.93302093 1.77268784 0 2 C0 1.34 0 0.68 0 0 Z " fill="#0090FF" transform="translate(458,622)"/>
</svg>
