<?xml version="1.0" encoding="UTF-8"?>
<svg version="1.1" xmlns="http://www.w3.org/2000/svg" width="792" height="792">
<path d="M0 0 C3.51895372 0.00315297 7.03705807 -0.02036003 10.5559082 -0.0456543 C29.50268395 -0.09956437 47.74270578 1.78924003 66.22973633 6.00317383 C67.34912598 6.25591064 68.46851563 6.50864746 69.62182617 6.76904297 C116.3758781 17.72177714 159.10049737 41.12067707 194.12817383 73.83520508 C196.81222382 76.34437888 196.81222382 76.34437888 199.70629883 78.51489258 C200.4152832 79.10915039 201.12426758 79.7034082 201.85473633 80.31567383 C201.85473633 80.97567383 201.85473633 81.63567383 201.85473633 82.31567383 C202.51473633 82.31567383 203.17473633 82.31567383 203.85473633 82.31567383 C203.85473633 82.97567383 203.85473633 83.63567383 203.85473633 84.31567383 C204.84473633 84.64567383 205.83473633 84.97567383 206.85473633 85.31567383 C208.25708008 86.67114258 208.25708008 86.67114258 209.79223633 88.50317383 C212.0231858 91.14656774 214.25729776 93.77962878 216.55786133 96.36254883 C224.37760879 105.20356599 231.29191712 114.5102108 237.85473633 124.31567383 C238.28496094 124.95698242 238.71518555 125.59829102 239.15844727 126.2590332 C258.18724391 154.92849263 271.20198735 186.52302567 278.66723633 220.06567383 C278.84988037 220.87746094 279.03252441 221.68924805 279.22070312 222.52563477 C279.83240022 225.44708881 280.35453965 228.37285004 280.85473633 231.31567383 C281.04265747 232.40730835 281.04265747 232.40730835 281.234375 233.52099609 C283.65642055 247.98538855 284.32631157 262.18580525 284.24584961 276.83813477 C284.22974956 280.31281769 284.24581186 283.78633797 284.26489258 287.26098633 C284.28237016 305.46264424 282.59286203 323.1731176 278.54223633 340.94067383 C278.33058838 341.88467041 278.11894043 342.82866699 277.90087891 343.80126953 C268.63576279 384.06694514 250.88466077 423.55348704 222.91723633 454.25317383 C222.27302734 454.97593506 221.62881836 455.69869629 220.96508789 456.44335938 C214.75305661 463.09166376 207.21978174 467.86718824 197.97192383 468.51879883 C186.92759145 468.67847592 177.98380423 467.19928142 169.85473633 459.31567383 C166.16666487 455.2789915 162.68206449 451.06482665 159.16918945 446.8762207 C142.79962156 427.44191945 116.66235915 414.00696083 91.41333008 411.77270508 C84.80268957 411.24385384 78.23287481 411.20230854 71.60473633 411.25317383 C70.46649414 411.25768555 69.32825195 411.26219727 68.15551758 411.2668457 C65.38853224 411.27847169 62.62166475 411.29480952 59.85473633 411.31567383 C61.40973016 408.03452159 63.12252028 405.85627724 65.66723633 403.25317383 C73.66009207 394.33024032 76.08532469 385.20538604 75.85473633 373.31567383 C75.20237442 365.25628612 70.48712501 357.41274639 64.60473633 352.00317383 C63.3811681 351.07156331 62.12918333 350.1763725 60.85473633 349.31567383 C60.15993164 348.82969727 59.46512695 348.3437207 58.74926758 347.84301758 C50.77032996 343.04496296 41.10248031 342.76513883 32.17895508 344.97973633 C21.18209247 349.47223793 12.57932053 358.16468657 4.3815918 366.46411133 C3.27061358 367.57757864 2.15896045 368.6903729 1.04669189 369.80255127 C-1.33011059 372.1820409 -3.70211905 374.56616924 -6.07037735 376.9541626 C-9.82124601 380.7362829 -13.58267179 384.50778823 -17.34542847 388.27807617 C-23.29837231 394.2454622 -29.24405048 400.22002867 -35.18673503 406.19762993 C-45.82521332 416.89815583 -56.47594686 427.58647697 -67.12950218 438.27198982 C-70.86185129 442.01611047 -74.59099143 445.7633893 -78.31740975 449.51341248 C-80.64127978 451.85119029 -82.96720261 454.18691826 -85.29357147 456.52220917 C-86.36510275 457.59877334 -87.43574994 458.67621836 -88.50540543 459.7546463 C-94.20436459 465.49955801 -99.98028885 471.06911464 -106.14526367 476.31567383 C-107.49967442 477.55684002 -108.84727309 478.80560162 -110.18041992 480.06958008 C-110.84493164 480.69670898 -111.50944336 481.32383789 -112.1940918 481.9699707 C-113.54054812 483.24590458 -114.88690169 484.52194689 -116.2331543 485.7980957 C-128.44669918 497.3232192 -128.44669918 497.3232192 -135.33276367 500.62817383 C-136.33694336 501.11930664 -137.34112305 501.61043945 -138.37573242 502.11645508 C-146.43413096 505.60577574 -155.67725458 505.47782843 -163.95776367 502.69067383 C-174.21399307 498.44209043 -181.51589862 491.20746266 -186.38354492 481.30786133 C-189.74356329 472.52012099 -188.77272973 462.99804447 -185.62182617 454.32739258 C-183.01205861 449.00429525 -179.36766625 444.46031576 -175.14526367 440.31567383 C-174.15526367 439.98567383 -173.16526367 439.65567383 -172.14526367 439.31567383 C-172.14526367 438.65567383 -172.14526367 437.99567383 -172.14526367 437.31567383 C-171.48526367 437.31567383 -170.82526367 437.31567383 -170.14526367 437.31567383 C-169.87713867 436.67629883 -169.60901367 436.03692383 -169.33276367 435.37817383 C-168.14526367 433.31567383 -168.14526367 433.31567383 -165.14526367 432.31567383 C-164.81526367 431.65567383 -164.48526367 430.99567383 -164.14526367 430.31567383 C-163.14526367 428.31567383 -163.14526367 428.31567383 -160.14526367 427.31567383 C-160.14526367 426.65567383 -160.14526367 425.99567383 -160.14526367 425.31567383 C-159.48526367 425.31567383 -158.82526367 425.31567383 -158.14526367 425.31567383 C-157.87713867 424.67629883 -157.60901367 424.03692383 -157.33276367 423.37817383 C-156.14526367 421.31567383 -156.14526367 421.31567383 -153.14526367 420.31567383 C-152.81526367 419.65567383 -152.48526367 418.99567383 -152.14526367 418.31567383 C-151.14526367 416.31567383 -151.14526367 416.31567383 -148.14526367 415.31567383 C-147.44375215 414.00033972 -146.78000442 412.66449791 -146.14526367 411.31567383 C-144.64526367 409.56567383 -144.64526367 409.56567383 -143.14526367 408.31567383 C-142.48526367 408.31567383 -141.82526367 408.31567383 -141.14526367 408.31567383 C-140.87713867 407.67629883 -140.60901367 407.03692383 -140.33276367 406.37817383 C-139.14526367 404.31567383 -139.14526367 404.31567383 -136.14526367 403.31567383 C-135.81526367 402.65567383 -135.48526367 401.99567383 -135.14526367 401.31567383 C-134.14526367 399.31567383 -134.14526367 399.31567383 -131.14526367 398.31567383 C-131.14526367 397.65567383 -131.14526367 396.99567383 -131.14526367 396.31567383 C-130.48526367 396.31567383 -129.82526367 396.31567383 -129.14526367 396.31567383 C-128.87713867 395.67629883 -128.60901367 395.03692383 -128.33276367 394.37817383 C-127.14526367 392.31567383 -127.14526367 392.31567383 -124.14526367 391.31567383 C-123.81526367 390.65567383 -123.48526367 389.99567383 -123.14526367 389.31567383 C-122.14526367 387.31567383 -122.14526367 387.31567383 -119.14526367 386.31567383 C-119.14526367 385.65567383 -119.14526367 384.99567383 -119.14526367 384.31567383 C-118.48526367 384.31567383 -117.82526367 384.31567383 -117.14526367 384.31567383 C-116.87713867 383.67629883 -116.60901367 383.03692383 -116.33276367 382.37817383 C-115.14526367 380.31567383 -115.14526367 380.31567383 -112.14526367 379.31567383 C-111.81526367 378.65567383 -111.48526367 377.99567383 -111.14526367 377.31567383 C-110.14526367 375.31567383 -110.14526367 375.31567383 -107.14526367 374.31567383 C-106.81526367 373.65567383 -106.48526367 372.99567383 -106.14526367 372.31567383 C-105.14526367 370.31567383 -105.14526367 370.31567383 -102.14526367 369.31567383 C-102.14526367 368.65567383 -102.14526367 367.99567383 -102.14526367 367.31567383 C-101.48526367 367.31567383 -100.82526367 367.31567383 -100.14526367 367.31567383 C-99.87713867 366.67629883 -99.60901367 366.03692383 -99.33276367 365.37817383 C-98.14526367 363.31567383 -98.14526367 363.31567383 -95.14526367 362.31567383 C-94.81526367 361.65567383 -94.48526367 360.99567383 -94.14526367 360.31567383 C-93.14526367 358.31567383 -93.14526367 358.31567383 -90.14526367 357.31567383 C-90.14526367 356.65567383 -90.14526367 355.99567383 -90.14526367 355.31567383 C-89.48526367 355.31567383 -88.82526367 355.31567383 -88.14526367 355.31567383 C-87.87713867 354.67629883 -87.60901367 354.03692383 -87.33276367 353.37817383 C-86.14526367 351.31567383 -86.14526367 351.31567383 -83.14526367 350.31567383 C-82.81526367 349.65567383 -82.48526367 348.99567383 -82.14526367 348.31567383 C-81.14526367 346.31567383 -81.14526367 346.31567383 -78.14526367 345.31567383 C-77.44375215 344.00033972 -76.78000442 342.66449791 -76.14526367 341.31567383 C-74.64526367 339.56567383 -74.64526367 339.56567383 -73.14526367 338.31567383 C-72.48526367 338.31567383 -71.82526367 338.31567383 -71.14526367 338.31567383 C-70.87713867 337.67629883 -70.60901367 337.03692383 -70.33276367 336.37817383 C-69.14526367 334.31567383 -69.14526367 334.31567383 -66.14526367 333.31567383 C-65.81526367 332.65567383 -65.48526367 331.99567383 -65.14526367 331.31567383 C-64.14526367 329.31567383 -64.14526367 329.31567383 -61.14526367 328.31567383 C-61.14526367 327.65567383 -61.14526367 326.99567383 -61.14526367 326.31567383 C-60.48526367 326.31567383 -59.82526367 326.31567383 -59.14526367 326.31567383 C-58.87713867 325.67629883 -58.60901367 325.03692383 -58.33276367 324.37817383 C-57.14526367 322.31567383 -57.14526367 322.31567383 -54.14526367 321.31567383 C-53.81526367 320.65567383 -53.48526367 319.99567383 -53.14526367 319.31567383 C-52.14526367 317.31567383 -52.14526367 317.31567383 -49.14526367 316.31567383 C-49.14526367 315.65567383 -49.14526367 314.99567383 -49.14526367 314.31567383 C-48.48526367 314.31567383 -47.82526367 314.31567383 -47.14526367 314.31567383 C-46.87713867 313.67629883 -46.60901367 313.03692383 -46.33276367 312.37817383 C-45.14526367 310.31567383 -45.14526367 310.31567383 -42.14526367 309.31567383 C-41.44287736 308.00080665 -40.78070514 306.66416794 -40.14526367 305.31567383 C-39.05392821 304.03617708 -37.9261457 302.78717362 -36.77026367 301.56567383 C-29.27635844 293.16813761 -26.61840616 283.85507099 -26.83666992 272.65942383 C-27.77796438 262.46008129 -32.66172833 254.42990986 -40.05932617 247.53051758 C-49.10930719 240.19318237 -58.71718872 239.22786776 -70.14526367 240.31567383 C-86.66961969 244.29500854 -98.94930768 258.96046342 -110.44604492 270.51879883 C-111.49572456 271.57035074 -112.54563052 272.62167676 -113.5957489 273.67279053 C-116.32988356 276.41069928 -119.06100296 279.15159571 -121.79144287 281.89318848 C-124.56965771 284.68168132 -127.35074288 287.46730827 -130.1315918 290.25317383 C-135.01966909 295.15075686 -139.90526902 300.05079688 -144.78901672 304.95269775 C-146.40101205 306.56929672 -148.01442245 308.18448554 -149.62904358 309.79846191 C-152.16434628 312.33476395 -154.69302909 314.87748802 -157.2199707 317.42211914 C-162.12047636 322.35538967 -167.02613234 327.28350496 -171.93470955 332.20874405 C-174.89267225 335.17711509 -177.84874431 338.14731862 -180.80053711 341.12182617 C-183.67420298 344.0174493 -186.55293089 346.90795468 -189.43502426 349.7951889 C-190.52183637 350.88564966 -191.60691055 351.97784584 -192.69006729 353.07193756 C-199.49802785 359.94587888 -206.5300715 366.32875443 -214.14526367 372.31567383 C-215.03263214 373.03676331 -215.92000061 373.75785278 -216.83425903 374.50079346 C-223.57912731 379.79767986 -231.88554804 380.08427122 -240.14526367 379.31567383 C-249.05484693 377.85054236 -257.12026047 373.36726014 -262.74291992 366.23364258 C-265.76465603 361.80457878 -266.98067427 357.03071845 -268.27026367 351.87817383 C-268.52324219 350.90533447 -268.7762207 349.93249512 -269.03686523 348.93017578 C-274.53228415 327.39345177 -276.50235043 306.34780307 -276.4609375 284.17041016 C-276.45778453 280.65145644 -276.48129753 277.13335208 -276.5065918 273.61450195 C-276.55817867 255.31279341 -274.90582247 237.55663001 -270.83276367 219.69067383 C-270.51529175 218.27467896 -270.51529175 218.27467896 -270.19140625 216.83007812 C-260.02424769 172.64417661 -239.14441602 131.33679455 -209.14526367 97.31567383 C-208.10499023 96.12651367 -208.10499023 96.12651367 -207.04370117 94.91333008 C-205.89105231 93.59636744 -204.73526678 92.28213666 -203.57495117 90.97192383 C-202.27382016 89.46460265 -201.04841943 87.89274076 -199.83276367 86.31567383 C-199.27588867 85.65567383 -198.71901367 84.99567383 -198.14526367 84.31567383 C-197.48526367 84.31567383 -196.82526367 84.31567383 -196.14526367 84.31567383 C-196.14526367 83.65567383 -196.14526367 82.99567383 -196.14526367 82.31567383 C-195.48526367 82.31567383 -194.82526367 82.31567383 -194.14526367 82.31567383 C-193.78368164 81.45135742 -193.78368164 81.45135742 -193.41479492 80.56958008 C-190.79865156 75.92491941 -186.13579302 72.76035387 -182.14526367 69.31567383 C-181.20553711 68.4777832 -180.26581055 67.63989258 -179.29760742 66.77661133 C-143.28491438 35.01500503 -98.41958455 14.42859049 -51.70776367 4.50317383 C-50.79881348 4.30836426 -49.88986328 4.11355469 -48.95336914 3.9128418 C-32.63410285 0.6141121 -16.61498763 -0.03102598 0 0 Z M-8.14526367 169.31567383 C-8.89936523 169.80165039 -9.6534668 170.28762695 -10.43041992 170.78833008 C-19.3566257 177.09181096 -25.14360429 185.5388827 -27.14526367 196.31567383 C-28.34023659 206.72900928 -24.3169366 216.88310342 -18.06323242 225.09692383 C-11.84928922 232.28535507 -4.71240558 237.84062457 4.85473633 239.31567383 C16.04473565 240.09577664 25.15204904 239.47981857 34.04223633 232.06567383 C35.33361331 230.83690906 36.60471467 229.58648586 37.85473633 228.31567383 C38.48508789 227.69563477 39.11543945 227.0755957 39.76489258 226.43676758 C46.26861744 219.60164272 49.03487193 212.81933266 49.35473633 203.37817383 C48.92996573 190.74467397 43.66028759 181.68584248 34.66723633 173.06567383 C25.05424391 165.48538465 14.65784245 164.13044413 2.81469727 165.07641602 C-1.42850755 165.59439568 -4.63476985 166.93531886 -8.14526367 169.31567383 Z " fill="#00A0FF" transform="translate(392.145263671875,115.684326171875)"/>
<path d="M0 0 C18.0030992 -0.39287893 33.37966081 5.36577708 46.48046875 17.87109375 C56.20363118 28.01229023 61.27821034 38.03732394 61.23046875 52.12109375 C59.66589657 68.07972997 47.28682593 84.70121294 35.31054688 94.7043457 C31.32298789 97.42028523 26.86429932 98.7484388 22.29296875 100.18359375 C21.25406494 100.52011963 20.21516113 100.85664551 19.14477539 101.20336914 C3.79047969 106.0185261 -12.90080024 110.23912964 -29.06640625 110.25390625 C-29.74068665 110.25486298 -30.41496704 110.2558197 -31.10968018 110.25680542 C-32.5281992 110.25748151 -33.94672142 110.25566737 -35.36523438 110.25146484 C-37.50007344 110.24614226 -39.6346989 110.25141194 -41.76953125 110.2578125 C-66.42936834 110.27287369 -66.42936834 110.27287369 -76.39453125 100.99609375 C-84.56388864 92.5479187 -87.10158147 83.77194704 -86.98828125 72.2578125 C-86.26427319 61.87605407 -81.69524834 54.78427963 -74.41015625 47.53125 C-73.90208435 47.02363632 -73.39401245 46.51602264 -72.87054443 45.99302673 C-71.80050732 44.92599235 -70.72805931 43.86137066 -69.65332031 42.79907227 C-68.0326663 41.19658159 -66.42006591 39.58632763 -64.80859375 37.97460938 C-59.30213787 32.48651914 -53.73977137 27.10833835 -47.76953125 22.12109375 C-47.19283691 21.63761475 -46.61614258 21.15413574 -46.02197266 20.65600586 C-32.35151637 9.34986299 -18.14234159 0.79324766 0 0 Z " fill="#0090FF" transform="translate(444.76953125,565.87890625)"/>
</svg>
